<mxfile host="www.draw.io" modified="2024-03-30T10:51:40.690Z" agent="Mozilla/5.0 (Windows NT 10.0; Win64; x64) AppleWebKit/537.36 (KHTML, like Gecko) Chrome/123.0.0.0 Safari/537.36" etag="I-1lcdA1xtIqKSuDgQjW" version="24.2.1" type="device">
  <diagram name="Page-1" id="NUZ45omNJB5RbLDSs0uL">
    <mxGraphModel dx="1434" dy="746" grid="1" gridSize="10" guides="1" tooltips="1" connect="1" arrows="1" fold="1" page="1" pageScale="1" pageWidth="827" pageHeight="1169" math="0" shadow="0">
      <root>
        <mxCell id="0" />
        <mxCell id="1" parent="0" />
        <mxCell id="pW7AKZEWv3kR_7Z6nf27-1" style="edgeStyle=orthogonalEdgeStyle;rounded=0;orthogonalLoop=1;jettySize=auto;html=1;exitX=0.5;exitY=1;exitDx=0;exitDy=0;entryX=0.5;entryY=0;entryDx=0;entryDy=0;" edge="1" parent="1" source="pW7AKZEWv3kR_7Z6nf27-2" target="pW7AKZEWv3kR_7Z6nf27-19">
          <mxGeometry relative="1" as="geometry" />
        </mxCell>
        <mxCell id="pW7AKZEWv3kR_7Z6nf27-2" value="&lt;b&gt;&lt;font style=&quot;font-size: 16px;&quot;&gt;Input&lt;/font&gt;&lt;/b&gt;" style="rounded=0;whiteSpace=wrap;html=1;fillColor=#f5f5f5;fontColor=#333333;strokeColor=#666666;rotation=-90;" vertex="1" parent="1">
          <mxGeometry y="110" width="90" height="40" as="geometry" />
        </mxCell>
        <mxCell id="pW7AKZEWv3kR_7Z6nf27-3" value="" style="edgeStyle=orthogonalEdgeStyle;rounded=0;orthogonalLoop=1;jettySize=auto;html=1;" edge="1" parent="1" source="pW7AKZEWv3kR_7Z6nf27-4" target="pW7AKZEWv3kR_7Z6nf27-6">
          <mxGeometry relative="1" as="geometry" />
        </mxCell>
        <mxCell id="pW7AKZEWv3kR_7Z6nf27-4" value="&lt;span style=&quot;font-size: 16px;&quot;&gt;&lt;b&gt;5 * Inception-ResNet-Depthwise Block&lt;/b&gt;&lt;/span&gt;" style="rounded=0;whiteSpace=wrap;html=1;fillColor=#0050ef;strokeColor=#001DBC;rotation=-90;fontColor=#ffffff;" vertex="1" parent="1">
          <mxGeometry x="190" y="87.5" width="120" height="85" as="geometry" />
        </mxCell>
        <mxCell id="pW7AKZEWv3kR_7Z6nf27-5" value="" style="edgeStyle=orthogonalEdgeStyle;rounded=0;orthogonalLoop=1;jettySize=auto;html=1;" edge="1" parent="1" source="pW7AKZEWv3kR_7Z6nf27-6" target="pW7AKZEWv3kR_7Z6nf27-8">
          <mxGeometry relative="1" as="geometry" />
        </mxCell>
        <mxCell id="pW7AKZEWv3kR_7Z6nf27-6" value="&lt;span style=&quot;font-size: 16px;&quot;&gt;&lt;b&gt;Reduction Block A&lt;/b&gt;&lt;/span&gt;" style="rounded=0;whiteSpace=wrap;html=1;fillColor=#ffe6cc;strokeColor=#d79b00;rotation=-90;" vertex="1" parent="1">
          <mxGeometry x="320" y="95" width="110" height="70" as="geometry" />
        </mxCell>
        <mxCell id="pW7AKZEWv3kR_7Z6nf27-7" value="" style="edgeStyle=orthogonalEdgeStyle;rounded=0;orthogonalLoop=1;jettySize=auto;html=1;" edge="1" parent="1" source="pW7AKZEWv3kR_7Z6nf27-8" target="pW7AKZEWv3kR_7Z6nf27-10">
          <mxGeometry relative="1" as="geometry" />
        </mxCell>
        <mxCell id="pW7AKZEWv3kR_7Z6nf27-8" value="&lt;span style=&quot;font-size: 16px;&quot;&gt;&lt;b&gt;10 * Inception ResNet Blocks B&lt;/b&gt;&lt;/span&gt;" style="rounded=0;whiteSpace=wrap;html=1;fillColor=#f8cecc;strokeColor=#b85450;rotation=-90;" vertex="1" parent="1">
          <mxGeometry x="440" y="95" width="110" height="70" as="geometry" />
        </mxCell>
        <mxCell id="pW7AKZEWv3kR_7Z6nf27-9" value="" style="edgeStyle=orthogonalEdgeStyle;rounded=0;orthogonalLoop=1;jettySize=auto;html=1;" edge="1" parent="1" source="pW7AKZEWv3kR_7Z6nf27-10" target="pW7AKZEWv3kR_7Z6nf27-12">
          <mxGeometry relative="1" as="geometry" />
        </mxCell>
        <mxCell id="pW7AKZEWv3kR_7Z6nf27-10" value="&lt;span style=&quot;font-size: 16px;&quot;&gt;&lt;b&gt;Reduction Block B&lt;/b&gt;&lt;/span&gt;" style="rounded=0;whiteSpace=wrap;html=1;fillColor=#fff2cc;strokeColor=#d6b656;rotation=-90;" vertex="1" parent="1">
          <mxGeometry x="560" y="95" width="110" height="70" as="geometry" />
        </mxCell>
        <mxCell id="pW7AKZEWv3kR_7Z6nf27-11" value="" style="edgeStyle=orthogonalEdgeStyle;rounded=0;orthogonalLoop=1;jettySize=auto;html=1;" edge="1" parent="1" source="pW7AKZEWv3kR_7Z6nf27-12" target="pW7AKZEWv3kR_7Z6nf27-14">
          <mxGeometry relative="1" as="geometry" />
        </mxCell>
        <mxCell id="pW7AKZEWv3kR_7Z6nf27-12" value="&lt;span style=&quot;font-size: 16px;&quot;&gt;&lt;b&gt;5 * Inception ResNet Block C&lt;/b&gt;&lt;/span&gt;" style="rounded=0;whiteSpace=wrap;html=1;fillColor=#f8cecc;strokeColor=#b85450;rotation=-90;" vertex="1" parent="1">
          <mxGeometry x="670" y="95" width="110" height="70" as="geometry" />
        </mxCell>
        <mxCell id="pW7AKZEWv3kR_7Z6nf27-13" value="" style="edgeStyle=orthogonalEdgeStyle;rounded=0;orthogonalLoop=1;jettySize=auto;html=1;" edge="1" parent="1" source="pW7AKZEWv3kR_7Z6nf27-14" target="pW7AKZEWv3kR_7Z6nf27-16">
          <mxGeometry relative="1" as="geometry" />
        </mxCell>
        <mxCell id="pW7AKZEWv3kR_7Z6nf27-14" value="&lt;span style=&quot;font-size: 16px;&quot;&gt;&lt;b&gt;Dropout&lt;/b&gt;&lt;/span&gt;" style="rounded=0;whiteSpace=wrap;html=1;fillColor=#f5f5f5;strokeColor=#666666;rotation=-90;fontColor=#333333;" vertex="1" parent="1">
          <mxGeometry x="782.5" y="102.5" width="110" height="55" as="geometry" />
        </mxCell>
        <mxCell id="pW7AKZEWv3kR_7Z6nf27-15" value="" style="edgeStyle=orthogonalEdgeStyle;rounded=0;orthogonalLoop=1;jettySize=auto;html=1;" edge="1" parent="1" source="pW7AKZEWv3kR_7Z6nf27-16" target="pW7AKZEWv3kR_7Z6nf27-17">
          <mxGeometry relative="1" as="geometry" />
        </mxCell>
        <mxCell id="pW7AKZEWv3kR_7Z6nf27-16" value="&lt;span style=&quot;font-size: 16px;&quot;&gt;&lt;b&gt;Global Average Pooling&lt;/b&gt;&lt;/span&gt;" style="rounded=0;whiteSpace=wrap;html=1;fillColor=#e1d5e7;strokeColor=#9673a6;rotation=-90;" vertex="1" parent="1">
          <mxGeometry x="880" y="100" width="122.5" height="60" as="geometry" />
        </mxCell>
        <mxCell id="pW7AKZEWv3kR_7Z6nf27-17" value="&lt;span style=&quot;font-size: 16px;&quot;&gt;&lt;b&gt;Output(Softmax)&lt;/b&gt;&lt;/span&gt;" style="rounded=0;whiteSpace=wrap;html=1;fillColor=#f5f5f5;strokeColor=#666666;rotation=-90;fontColor=#333333;" vertex="1" parent="1">
          <mxGeometry x="975" y="100" width="132.5" height="60" as="geometry" />
        </mxCell>
        <mxCell id="pW7AKZEWv3kR_7Z6nf27-18" style="edgeStyle=orthogonalEdgeStyle;rounded=0;orthogonalLoop=1;jettySize=auto;html=1;exitX=0.5;exitY=1;exitDx=0;exitDy=0;entryX=0.5;entryY=0;entryDx=0;entryDy=0;" edge="1" parent="1" source="pW7AKZEWv3kR_7Z6nf27-19" target="pW7AKZEWv3kR_7Z6nf27-4">
          <mxGeometry relative="1" as="geometry" />
        </mxCell>
        <mxCell id="pW7AKZEWv3kR_7Z6nf27-19" value="&lt;span style=&quot;font-size: 16px;&quot;&gt;&lt;b&gt;Attention STEM&amp;nbsp;&lt;/b&gt;&lt;/span&gt;" style="rounded=0;whiteSpace=wrap;html=1;fillColor=#1ba1e2;strokeColor=#006EAF;rotation=-90;fontColor=#ffffff;" vertex="1" parent="1">
          <mxGeometry x="80" y="95" width="110" height="70" as="geometry" />
        </mxCell>
      </root>
    </mxGraphModel>
  </diagram>
</mxfile>
